<svg width="690.8888898664609" height="999.9999999999999" viewBox="0 0 690.8888898664609 999.9999999999999" xmlns="http://www.w3.org/2000/svg"><defs/><path fill="#434343" transform="matrix(1.4827894252224585 0 0 1.4827894252224585 -37.32685553431065 -9.193317641925656)" d="M 388.48021739979 382.90661895327 C 393.98321739979 384.59461895327 398.32821739979 388.55961895327 401.51821739979 394.80361895327 C 404.53921739979 400.70361895327 406.44021739979 406.35861895327 407.22121739979 411.76361895327 C 407.26621739979 412.07261895327 407.13421739979 412.20461895327 406.82521739979 412.15961895327 C 405.34621739979 411.96361895327 403.92321739979 411.63161895327 402.55621739979 411.16461895327 C 401.95221739979 410.95761895327 401.39121739979 410.99361895327 400.86821739979 411.27361895327 C 396.14221739979 413.81461895327 391.08821739979 416.53061895327 387.64621739979 420.79961895327 C 387.38621739979 421.12061895327 387.37021739979 421.57661895327 387.60421739979 421.92261895327 C 390.30321739979 425.87061895327 392.48921739979 430.40161895327 389.62021739979 435.00961895327 C 383.16621739979 445.36261895327 390.31221739979 455.31061895327 397.18821739979 463.96661895327 C 406.26821739979 475.39261895327 410.29021739979 488.27061895327 409.25421739979 502.60261895327 C 409.15821739979 503.95961895327 408.89021739979 503.99361895327 408.44421739979 502.70461895327 C 405.45221739979 494.00961895327 400.31021739979 486.67361895327 393.02021739979 480.69961895327 C 391.87721739979 479.76561895327 391.70121739979 479.92061895327 392.48821739979 481.16361895327 C 393.83321739979 483.29061895327 395.10321739979 485.39961895327 396.30221739979 487.49161895327 C 403.82021739979 500.64561895327 403.34721739979 514.79661895327 398.74821739979 528.99661895327 C 394.14921739979 543.20661895327 387.77921739979 558.43561895327 391.44921739979 573.54761895327 C 391.51121739979 573.78161895327 391.37221739979 574.02361895327 391.13721739979 574.08461895327 C 391.04121739979 574.10861895327 390.94121739979 574.10161895327 390.85021739979 574.06361895327 C 378.15521739979 568.84261895327 365.53421739979 562.21361895327 352.99121739979 554.17561895327 C 331.18821739979 540.21961895327 310.27121739979 523.60961895327 290.24021739979 504.34261895327 C 287.76021739979 501.96261895327 285.59921739979 499.16961895327 283.25421739979 496.57161895327 C 282.46621739979 495.69361895327 282.31921739979 495.78961895327 282.81421739979 496.85761895327 C 286.61821739979 505.15461895327 291.23021739979 512.73161895327 296.65321739979 519.58861895327 C 297.03521739979 520.07861895327 296.93721739979 520.20761895327 296.35721739979 519.97661895327 C 295.39121739979 519.58861895327 294.45621739979 519.09561895327 293.55621739979 518.49961895327 C 276.20821739979 506.98961895327 261.94121739979 491.37261895327 251.24221739979 473.50961895327 C 250.21721739979 471.80061895327 250.02121739979 471.89061895327 250.65221739979 473.78061895327 C 253.03921739979 480.93461895327 256.71721739979 487.88761895327 260.34721739979 494.44361895327 C 260.52621739979 494.76461895327 260.58521739979 495.09661895327 260.52321739979 495.43961895327 C 260.50021739979 495.58361895327 260.36621739979 495.67861895327 260.22321739979 495.65561895327 C 260.18321739979 495.64961895327 260.14421739979 495.63261895327 260.11021739979 495.60961895327 C 246.42421739979 485.54361895327 233.68421739979 472.92061895327 224.91721739979 458.59261895327 C 220.53621739979 451.42061895327 218.18721739979 444.20561895327 217.87121739979 436.94861895327 C 217.27321739979 422.95161895327 218.15921739979 408.85961895327 221.97321739979 395.79861895327 C 223.69421739979 389.91761895327 226.29221739979 383.92761895327 228.66421739979 378.15461895327 C 234.02421739979 365.06561895327 237.04921739979 351.48261895327 237.73521739979 337.40961895327 C 238.25821739979 326.65961895327 238.41921739979 315.87361895327 238.21521739979 305.05161895327 C 238.09221739979 298.57161895327 237.18821739979 292.65561895327 235.50721739979 287.30661895327 C 232.62121739979 278.13461895327 225.97121739979 270.66861895327 216.10121739979 270.09361895327 C 215.31921739979 270.04961895327 215.25921739979 270.23461895327 215.92421739979 270.65061895327 C 222.27721739979 274.59961895327 226.50621739979 280.61561895327 226.53021739979 288.27761895327 C 226.53521739979 289.97661895327 226.28521739979 290.01561895327 225.77921739979 288.39561895327 C 223.71921739979 281.72361895327 219.21121739979 276.66661895327 212.25421739979 273.22461895327 C 202.82121739979 268.55861895327 191.97821739979 270.65061895327 184.57821739979 278.05161895327 C 176.28521739979 286.35461895327 174.77321739979 299.41561895327 176.98421739979 310.77361895327 C 179.33021739979 322.83861895327 185.01621739979 333.20561895327 194.04521739979 341.87461895327 C 203.79121739979 351.24061895327 217.69721739979 355.20661895327 231.07921739979 353.68761895327 C 231.09521739979 353.68761895327 231.11021739979 353.70761895327 231.12121739979 353.74561895327 L 231.18821739979 353.94961895327 C 231.21621739979 354.04561895327 231.18321739979 354.10561895327 231.08721739979 354.13461895327 C 215.20821739979 358.51361895327 200.29821739979 354.80161895327 189.14421739979 342.87861895327 C 185.05921739979 338.50761895327 181.85921739979 333.79561895327 179.54121739979 328.74561895327 C 179.16921739979 327.93461895327 178.99621739979 327.97461895327 179.01821739979 328.86361895327 C 179.12521739979 332.60561895327 178.94221739979 336.41861895327 178.47021739979 340.30661895327 C 176.75621739979 354.35361895327 172.63121739979 367.98961895327 167.46721739979 381.15261895327 C 164.00121739979 389.99561895327 159.84021739979 398.58861895327 154.98021739979 406.92961895327 C 153.97821739979 408.65061895327 153.56721739979 408.52161895327 153.74821739979 406.54161895327 C 154.89521739979 394.26361895327 154.60021739979 380.86461895327 151.07321739979 369.68561895327 C 147.53021739979 358.48961895327 141.31121739979 347.47761895327 135.88621739979 336.61961895327 C 122.87421739979 310.59661895327 111.19721739979 280.22161895327 119.83721739979 250.91761895327 C 121.68921739979 244.63461895327 124.57021739979 239.25861895327 128.48521739979 234.79261895327 C 128.57321739979 234.69561895327 128.56021739979 234.54361895327 128.45921739979 234.45461895327 C 128.43821739979 234.43761895327 128.41721739979 234.42361895327 128.39221739979 234.41261895327 C 126.49621739979 233.65961895327 124.68321739979 232.64861895327 122.94921739979 231.38461895327 C 105.75421739979 218.80361895327 99.19821739979 199.19461895327 96.16821739979 179.11261895327 C 95.98321739979 177.88161895327 96.09221739979 177.85561895327 96.49721739979 179.03761895327 C 101.85521739979 194.73961895327 112.69721739979 204.44261895327 128.67921739979 208.64461895327 C 135.80521739979 210.52361895327 143.01621739979 211.45461895327 150.31321739979 211.43761895327 C 157.43421739979 211.42061895327 164.58121739979 211.48561895327 171.75321739979 211.63161895327 C 192.25121739979 212.05361895327 211.73321739979 216.16261895327 230.20121739979 223.95961895327 C 231.08421739979 224.33661895327 231.12021739979 224.26261895327 230.31021739979 223.73961895327 C 229.29221739979 223.08161895327 228.26021739979 222.47461895327 227.21421739979 221.91761895327 C 209.17421739979 212.38161895327 188.37521739979 208.31561895327 168.04021739979 207.72561895327 C 162.13921739979 207.55061895327 156.18321739979 207.43361895327 150.16921739979 207.37061895327 C 134.68621739979 207.21061895327 120.06421739979 203.63261895327 108.65421739979 193.64261895327 C 106.64721739979 191.88761895327 105.09921739979 190.12661895327 104.01421739979 188.36061895327 C 103.14821739979 186.94761895327 103.30021739979 186.82761895327 104.47021739979 187.99761895327 C 115.68421739979 199.19461895327 130.77821739979 202.70461895327 146.30421739979 203.09261895327 C 157.37321739979 203.36161895327 168.34821739979 202.14761895327 179.22821739979 199.44661895327 C 179.26221739979 199.43661895327 179.27521739979 199.41261895327 179.27021739979 199.37961895327 L 179.27021739979 199.37161895327 C 179.26021739979 199.29261895327 179.21221739979 199.25661895327 179.12721739979 199.26161895327 C 156.49621739979 201.38761895327 133.09821739979 200.24061895327 113.49021739979 187.76961895327 C 103.65221739979 181.50861895327 97.53421739979 172.64861895327 95.13721739979 161.19061895327 C 94.97421739979 160.40261895327 95.08421739979 160.36361895327 95.46621739979 161.07161895327 C 101.49721739979 172.22161895327 110.83421739979 176.78661895327 123.47921739979 174.76661895327 C 129.16721739979 173.85561895327 134.71021739979 171.43061895327 140.10921739979 167.49361895327 C 145.75121739979 163.36961895327 151.18921739979 159.29561895327 156.42021739979 155.26761895327 C 170.71321739979 144.25861895327 186.50121739979 135.85761895327 203.78021739979 130.06361895327 C 233.21121739979 120.19161895327 262.56421739979 119.21261895327 291.83721739979 127.12761895327 C 310.67521739979 132.22361895327 326.83921739979 141.26561895327 340.32821739979 154.25461895327 C 349.13821739979 162.74261895327 356.91621739979 174.16761895327 359.53121739979 186.03061895327 C 360.22921739979 189.20361895327 360.58721739979 189.16361895327 360.60321739979 185.91261895327 C 360.63121739979 178.67261895327 358.99821739979 171.65861895327 355.70121739979 164.86861895327 C 343.55921739979 139.83461895327 316.50921739979 126.44361895327 290.35021739979 121.19461895327 C 266.10821739979 116.32661895327 241.56321739979 117.47361895327 217.09421739979 122.88261895327 C 213.60821739979 123.65361895327 210.19821739979 124.52461895327 206.86821739979 125.49761895327 C 206.77221739979 125.52561895327 206.71021739979 125.49561895327 206.68221739979 125.40461895327 L 206.68221739979 125.39661895327 C 206.65321739979 125.33461895327 206.67421739979 125.29061895327 206.74221739979 125.26161895327 C 230.35021739979 115.34661895327 255.10621739979 109.79561895327 280.89221739979 110.32561895327 C 306.79521739979 110.85761895327 333.14821739979 119.32861895327 351.12821739979 137.88361895327 C 360.25721739979 147.30061895327 368.83821739979 161.64561895327 365.82521739979 174.76561895327 C 365.70721739979 175.27161895327 365.81421739979 175.32561895327 366.14621739979 174.92661895327 C 367.47921739979 173.32861895327 368.52321739979 171.61561895327 369.27621739979 169.78761895327 C 382.40521739979 137.98661895327 354.73721739979 112.68161895327 325.46821739979 108.25061895327 C 323.98821739979 108.03161895327 323.99221739979 107.86361895327 325.48521739979 107.74461895327 C 346.39321739979 106.09161895327 367.79921739979 109.64261895327 384.94521739979 121.00861895327 C 403.34721739979 133.20961895327 415.14321739979 153.96661895327 413.70921739979 176.41861895327 C 412.68821739979 192.28161895327 404.62221739979 207.52061895327 393.35821739979 218.58161895327 C 392.77221739979 219.14961895327 392.85421739979 219.27061895327 393.60121739979 218.94561895327 C 394.24821739979 218.66361895327 394.87221739979 218.30861895327 395.47621739979 217.88161895327 C 415.16121739979 203.89261895327 418.14721739979 180.89961895327 414.65421739979 158.47161895327 C 413.22521739979 149.29761895327 409.81321739979 140.70661895327 404.42021739979 132.70261895327 C 404.36821739979 132.63061895327 404.38021739979 132.56461895327 404.45421739979 132.50861895327 L 404.46121739979 132.50861895327 C 404.52821739979 132.45761895327 404.59121739979 132.46561895327 404.64821739979 132.53461895327 C 405.44121739979 133.48461895327 406.18421739979 134.46861895327 406.87621739979 135.48661895327 C 423.53221739979 160.08361895327 427.84321739979 198.94761895327 408.13321739979 223.48461895327 C 405.50121739979 226.76361895327 402.60621739979 229.21561895327 399.45021739979 230.84161895327 C 399.15821739979 230.98761895327 399.00921739979 231.22361895327 399.00421739979 231.54961895327 C 398.84121739979 239.94761895327 398.97121739979 248.15261895327 399.39321739979 256.16161895327 C 399.76321739979 263.20761895327 401.23121739979 270.27961895327 402.21821739979 277.44261895327 C 403.32521739979 285.48061895327 401.97721739979 292.65561895327 398.16821739979 298.96661895327 C 397.44221739979 300.17061895327 397.68121739979 300.41461895327 398.88521739979 299.70061895327 C 400.26921739979 298.87861895327 401.56521739979 298.09161895327 402.77521739979 297.33761895327 C 405.58221739979 295.58761895327 405.87721739979 295.94161895327 403.66221739979 298.40061895327 C 398.54921739979 304.07661895327 394.06821739979 309.69661895327 390.22121739979 315.25861895327 C 389.78721739979 315.88861895327 389.72621739979 316.55561895327 390.03521739979 317.25861895327 C 393.56221739979 325.31961895327 397.01421739979 333.54361895327 400.38821739979 341.92961895327 C 402.77621739979 347.86261895327 408.31221739979 352.13061895327 413.20521739979 356.25661895327 C 419.55121739979 361.60661895327 421.88821739979 370.43261895327 417.45721739979 377.52761895327 C 413.42521739979 383.99161895327 406.33721739979 384.28661895327 399.42721739979 383.81361895327 C 395.64221739979 383.54961895327 392.00621739979 383.18961895327 388.52621739979 382.73361895327 C 387.86521739979 382.65361895327 387.85221739979 382.70961895327 388.48021739979 382.90661895327 Z M 389.27521739979 197.66561895327 C 388.28821739979 201.37861895327 386.84321739979 204.81261895327 385.18121739979 208.16361895327 C 384.44521739979 209.63661895327 384.67921739979 209.80761895327 385.88321739979 208.67761895327 C 395.70421739979 199.48061895327 399.04421739979 186.96861895327 398.32721739979 173.38361895327 C 397.29321739979 153.88161895327 388.79021739979 138.79461895327 372.82021739979 128.12361895327 C 372.07221739979 127.62861895327 371.29021739979 127.17261895327 370.47421739979 126.75661895327 C 370.41821739979 126.72961895327 370.37221739979 126.73961895327 370.33921739979 126.79061895327 C 370.32221739979 126.81861895327 370.31721739979 126.84761895327 370.32221739979 126.87461895327 C 370.34321739979 127.02761895327 370.41521739979 127.15061895327 370.53321739979 127.24661895327 C 373.60421739979 129.75061895327 376.46921739979 132.44461895327 379.13121739979 135.33061895327 C 394.03321739979 151.52861895327 394.63321739979 177.57561895327 389.27521739979 197.66561895327 Z M 301.52221739979 166.87661895327 C 283.39821739979 142.88861895327 252.35621739979 130.25761895327 223.12021739979 133.73361895327 C 215.72821739979 134.61661895327 208.40721739979 136.66161895327 201.15721739979 139.86761895327 C 201.12921739979 139.87961895327 201.12121739979 139.90161895327 201.13121739979 139.93461895327 L 201.20721739979 140.17161895327 C 201.24121739979 140.25561895327 201.29921739979 140.28561895327 201.38521739979 140.26361895327 C 222.87821739979 134.75061895327 243.92721739979 135.86261895327 264.53221739979 143.59661895327 C 277.75321739979 148.55761895327 290.85921739979 156.80161895327 301.23721739979 167.25661895327 C 301.27121739979 167.28961895327 301.30421739979 167.29261895327 301.33921739979 167.26361895327 L 301.49921739979 167.11961895327 C 301.57521739979 167.04861895327 301.58321739979 166.96661895327 301.52221739979 166.87661895327 Z M 329.65521739979 193.26961895327 C 329.64821739979 193.37061895327 329.61121739979 193.46161895327 329.54421739979 193.53961895327 C 329.41421739979 193.68661895327 329.44821739979 193.74761895327 329.64521739979 193.72561895327 C 329.79221739979 193.70861895327 329.91721739979 193.64661895327 330.01821739979 193.53961895327 C 336.90321739979 186.33461895327 335.37521739979 175.88761895327 330.72621739979 167.84761895327 C 324.09321739979 156.37061895327 312.46721739979 148.12761895327 300.46021739979 142.77061895327 C 300.34721739979 142.72061895327 300.26321739979 142.75061895327 300.20621739979 142.86261895327 L 300.10421739979 143.04961895327 C 300.08721739979 143.08361895327 300.09621739979 143.10961895327 300.13021739979 143.12461895327 C 306.42021739979 146.83761895327 312.04421739979 151.46261895327 317.00521739979 156.99761895327 C 325.68121739979 166.67361895327 330.87721739979 180.28361895327 329.65521739979 193.26961895327 Z M 376.38221739979 185.28761895327 C 373.85121739979 191.29561895327 370.03621739979 194.76261895327 364.67921739979 198.25661895327 C 364.08921739979 198.64361895327 364.14221739979 198.77361895327 364.84021739979 198.64361895327 C 375.83421739979 196.58461895327 380.92221739979 188.77161895327 382.49121739979 178.37661895327 C 383.92021739979 168.85461895327 382.69321739979 159.38561895327 378.81121739979 149.97461895327 C 378.77821739979 149.88561895327 378.71321739979 149.85361895327 378.61821739979 149.88261895327 L 378.61021739979 149.88261895327 C 378.52921739979 149.91061895327 378.50021739979 149.96661895327 378.51621739979 150.05061895327 C 381.06421739979 161.62861895327 381.02321739979 174.31061895327 376.38221739979 185.28761895327 Z M 267.55221739979 173.89661895327 C 251.94221739979 159.11361895327 230.35021739979 155.89961895327 209.41721739979 158.01761895327 C 199.75821739979 158.99661895327 190.33121739979 161.00461895327 181.13321739979 164.04161895327 C 166.51121739979 168.86861895327 152.93521739979 174.98561895327 139.20721739979 181.11261895327 C 139.14021739979 181.13961895327 139.12021739979 181.19161895327 139.14821739979 181.26361895327 L 139.14821739979 181.27161895327 C 139.18221739979 181.35061895327 139.24021739979 181.37661895327 139.32421739979 181.34761895327 C 147.20621739979 178.41661895327 154.63921739979 175.76961895327 161.62521739979 173.40761895327 C 187.02321739979 164.81861895327 214.06521739979 160.70961895327 239.92721739979 169.18161895327 C 253.55121739979 173.64161895327 264.95621739979 181.14161895327 274.14221739979 191.68461895327 C 277.36521739979 195.38461895327 279.84021739979 199.50561895327 281.56721739979 204.04461895327 C 281.63021739979 204.20761895327 281.74521739979 204.26061895327 281.91421739979 204.20561895327 C 282.05321739979 204.14961895327 282.14021739979 204.00861895327 282.12421739979 203.85961895327 C 280.94321739979 191.96761895327 276.08621739979 181.98061895327 267.55221739979 173.89661895327 Z M 269.54421739979 215.17361895327 C 257.01521739979 195.91061895327 236.84021739979 184.52061895327 214.35221739979 181.02761895327 C 194.99721739979 178.01761895327 175.37221739979 179.13761895327 155.47521739979 184.38461895327 C 155.42521739979 184.39661895327 155.40521739979 184.42661895327 155.41521739979 184.47761895327 L 155.45821739979 184.70561895327 C 155.46421739979 184.73961895327 155.48221739979 184.75361895327 155.51621739979 184.74861895327 C 174.22121739979 182.45761895327 192.12021739979 183.46261895327 209.21521739979 187.75961895327 C 230.71521739979 193.16461895327 247.96321739979 205.15561895327 260.96421739979 223.73061895327 C 267.32521739979 232.83461895327 272.99421739979 242.88361895327 280.89321739979 250.92461895327 C 283.36821739979 253.44561895327 286.33521739979 255.50161895327 289.79421739979 257.09161895327 C 290.98621739979 257.63761895327 291.13821739979 257.42961895327 290.25021739979 256.46761895327 C 286.99921739979 252.95761895327 284.35721739979 248.44961895327 282.32621739979 242.94261895327 C 278.77421739979 233.30661895327 275.19721739979 223.85561895327 269.54421739979 215.17361895327 Z M 319.74021739979 295.01961895327 C 319.73521739979 294.94061895327 319.73521739979 294.85861895327 319.74021739979 294.77461895327 C 319.74521739979 294.70061895327 319.78421739979 294.65661895327 319.85821739979 294.63961895327 C 332.97421739979 291.01061895327 345.52821739979 286.09961895327 357.51521739979 279.90761895327 C 357.95321739979 279.68261895327 358.41221739979 279.62061895327 358.89021739979 279.72161895327 C 368.52721739979 281.73861895327 377.68121739979 286.06661895327 386.94521739979 290.16661895327 C 389.33721739979 291.22561895327 391.68221739979 291.98461895327 393.98321739979 292.44561895327 C 394.17421739979 292.48461895327 394.36421739979 292.38061895327 394.43021739979 292.20061895327 C 396.62321739979 286.71061895327 397.18821739979 280.97561895327 396.12521739979 274.99661895327 C 393.33221739979 259.23461895327 392.45421739979 243.73461895327 391.40821739979 228.30261895327 C 391.38321739979 227.88161895327 391.13821739979 227.50261895327 390.76721739979 227.29961895327 C 370.39021739979 216.24561895327 349.86121739979 210.03461895327 326.36321739979 203.74961895327 C 316.28721739979 201.06161895327 306.64721739979 197.49461895327 297.43821739979 193.04961895327 C 297.32521739979 192.99361895327 297.25721739979 193.03061895327 297.23521739979 193.15961895327 C 294.65321739979 208.24661895327 293.58521739979 223.11061895327 294.02921739979 237.75261895327 C 294.32221739979 247.46861895327 296.62521739979 256.32761895327 300.94021739979 264.33161895327 C 301.04821739979 264.53261895327 300.98021739979 264.78161895327 300.78521739979 264.89061895327 C 300.76221739979 264.90361895327 300.73721739979 264.91361895327 300.71321739979 264.92161895327 C 292.46521739979 267.76161895327 284.32921739979 270.58361895327 276.30321739979 273.38461895327 C 273.17521739979 274.47561895327 270.32021739979 275.70761895327 267.73721739979 277.07961895327 C 255.59521739979 283.56061895327 254.78521739979 300.95161895327 254.52321739979 312.93961895327 C 254.08021739979 332.76261895327 253.36321739979 357.23561895327 252.37321739979 386.35661895327 C 252.06121739979 395.64561895327 257.15721739979 405.09561895327 263.01321739979 412.26061895327 C 264.25621739979 413.77361895327 265.59021739979 415.05861895327 267.01321739979 416.11561895327 C 267.75621739979 416.67261895327 267.85421739979 416.57461895327 267.30821739979 415.82061895327 C 263.32621739979 410.35761895327 260.15621739979 404.20461895327 257.80021739979 397.35761895327 C 255.42121739979 390.44861895327 255.52221739979 383.61361895327 255.77521739979 376.28061895327 C 256.30921739979 360.75061895327 256.74821739979 345.31361895327 257.09021739979 329.97461895327 C 257.11221739979 328.92861895327 257.24221739979 328.91561895327 257.47921739979 329.93261895327 C 259.21621739979 337.39161895327 261.50021739979 344.54961895327 264.33121739979 351.40661895327 C 264.80921739979 352.56561895327 265.01521739979 353.87061895327 264.94721739979 355.32261895327 C 264.40121739979 367.20761895327 263.97621739979 379.01761895327 263.67321739979 390.75161895327 C 263.67321739979 390.83061895327 263.68121739979 390.83061895327 263.69721739979 390.75161895327 C 264.05121739979 389.07661895327 264.26821739979 387.45661895327 264.34621739979 385.89361895327 C 264.80221739979 376.66261895327 265.41221739979 367.44761895327 266.17821739979 358.24961895327 C 266.22321739979 357.74361895327 266.22021739979 357.24661895327 266.16921739979 356.75661895327 C 266.10721739979 356.04761895327 266.26021739979 355.99661895327 266.62521739979 356.60461895327 C 268.56621739979 359.77261895327 270.44121739979 362.81561895327 272.25321739979 365.73461895327 C 272.50621739979 366.14561895327 272.45921739979 366.52761895327 272.10921739979 366.88161895327 C 271.85721739979 373.44061895327 271.44921739979 379.98261895327 270.88721739979 386.50761895327 C 270.88021739979 386.58661895327 270.91621739979 386.63261895327 270.99521739979 386.64361895327 L 270.99521739979 386.64361895327 C 271.09621739979 386.64961895327 271.15321739979 386.60161895327 271.16321739979 386.49961895327 C 271.68621739979 380.88461895327 272.30321739979 374.90261895327 273.01221739979 368.55361895327 C 273.01821739979 368.50261895327 273.01221739979 368.45061895327 272.99421739979 368.40161895327 L 272.72421739979 367.53261895327 C 272.55621739979 366.98661895327 272.69621739979 366.88661895327 273.14621739979 367.23661895327 C 274.30221739979 368.14861895327 274.80921739979 369.39661895327 275.68621739979 370.51861895327 C 284.97621739979 382.38161895327 294.77321739979 394.11061895327 305.74221739979 404.14361895327 C 311.62521739979 409.52161895327 318.48121739979 410.65461895327 326.31221739979 407.54261895327 C 330.56521739979 405.85061895327 334.56921739979 403.88361895327 338.32821739979 401.64561895327 C 346.17021739979 396.95961895327 354.01421739979 392.57261895327 361.86021739979 388.48261895327 C 368.28521739979 385.13561895327 373.97421739979 383.13561895327 378.93021739979 382.48261895327 C 384.26221739979 381.78661895327 391.70321739979 381.33661895327 401.25621739979 381.13361895327 C 408.84021739979 380.97361895327 415.23621739979 377.02461895327 415.22921739979 368.69661895327 C 415.21721739979 364.83761895327 413.60521739979 361.44161895327 410.39421739979 358.51061895327 C 407.76121739979 356.10961895327 405.08621739979 353.70661895327 402.37021739979 351.30561895327 C 398.76621739979 348.11561895327 396.22821739979 343.92161895327 394.25221739979 339.44261895327 C 391.31121739979 332.74761895327 388.40021739979 326.05661895327 385.52021739979 319.36861895327 C 384.55321739979 317.11361895327 384.50221739979 315.04561895327 385.36921739979 313.16661895327 C 386.44321739979 310.83861895327 387.88621739979 308.48761895327 389.69721739979 306.11361895327 C 390.10221739979 305.59061895327 389.98021739979 305.39361895327 389.33521739979 305.52361895327 C 386.54221739979 306.08061895327 384.80421739979 307.15161895327 381.92721739979 305.64961895327 C 370.62821739979 299.76761895327 359.66721739979 295.88661895327 346.68321739979 294.88261895327 C 339.47721739979 294.31961895327 330.49921739979 294.36761895327 319.74921739979 295.02561895327 C 319.74321739979 295.02761895327 319.74021739979 295.02561895327 319.74021739979 295.01961895327 Z M 206.43021739979 245.26161895327 C 199.42721739979 240.60461895327 190.93921739979 238.11561895327 182.61021739979 237.76961895327 C 169.07621739979 237.21261895327 157.01221739979 240.87161895327 146.42121739979 248.74761895327 C 144.98221739979 249.82261895327 145.08021739979 249.99061895327 146.71721739979 249.25361895327 C 165.43121739979 240.80661895327 186.43321739979 239.83661895327 206.18521739979 245.77761895327 C 207.43421739979 246.15361895327 207.51621739979 245.98361895327 206.43021739979 245.26161895327 Z M 355.02521739979 427.87161895327 L 383.57121739979 427.98961895327 C 383.93621739979 427.99561895327 384.07621739979 427.81761895327 383.99321739979 427.45861895327 C 383.61021739979 425.81961895327 383.21721739979 424.15561895327 382.81121739979 422.46361895327 C 382.27921739979 420.24361895327 383.90021739979 419.00361895327 385.21521739979 417.61061895327 C 385.78921739979 417.00361895327 385.68621739979 416.84761895327 384.90321739979 417.14661895327 C 382.32121739979 418.13461895327 379.52821739979 418.63961895327 376.77821739979 418.79261895327 C 368.17621739979 419.27061895327 359.15721739979 419.48861895327 349.71721739979 419.45061895327 C 349.53421739979 419.45061895327 349.37221739979 419.56561895327 349.31221739979 419.73761895327 C 346.82721739979 426.44161895327 346.10921739979 433.38361895327 347.16121739979 440.56161895327 C 348.19121739979 447.60661895327 352.52721739979 453.29261895327 357.72521739979 458.02661895327 C 363.99621739979 463.73661895327 370.50521739979 469.16061895327 377.24921739979 474.29661895327 C 377.27121739979 474.31261895327 377.30121739979 474.32561895327 377.33421739979 474.33761895327 C 377.36221739979 474.34961895327 377.39021739979 474.34961895327 377.41721739979 474.33761895327 C 377.48521739979 474.30961895327 377.49021739979 474.27061895327 377.43521739979 474.22061895327 C 370.14521739979 467.01361895327 362.51821739979 459.64861895327 356.85521739979 451.25261895327 C 354.43121739979 447.65761895327 353.35721739979 443.71761895327 353.63221739979 439.43161895327 C 353.87921739979 435.67961895327 354.16021739979 431.99261895327 354.47521739979 428.36961895327 C 354.51121739979 428.03661895327 354.69421739979 427.87161895327 355.02521739979 427.87161895327 Z"/><path fill="#434343" transform="matrix(1.4827894252224585 0 0 1.4827894252224585 -37.32685553431065 -9.193317641925656)" d="M 387.72221739979 261.93561895327 C 387.53721739979 263.89761895327 387.38221739979 265.80061895327 387.25921739979 267.63961895327 C 387.25321739979 267.75261895327 387.19421739979 267.80361895327 387.08121739979 267.79161895327 L 387.08121739979 267.79161895327 C 386.99221739979 267.78661895327 386.94921739979 267.74061895327 386.95421739979 267.65661895327 C 387.33621739979 260.83361895327 387.04121739979 253.56961895327 386.06821739979 245.86161895327 C 385.22421739979 239.16861895327 383.76221739979 233.45861895327 381.68021739979 228.73261895327 C 381.59521739979 228.53561895327 381.65921739979 228.44661895327 381.87421739979 228.46361895327 C 382.02021739979 228.47561895327 382.13121739979 228.53561895327 382.20321739979 228.64861895327 C 384.20621739979 231.71461895327 385.62421739979 235.19261895327 386.45521739979 239.08661895327 C 388.05421739979 246.50661895327 388.47621739979 254.12161895327 387.72221739979 261.93561895327 Z"/><path fill="#434343" transform="matrix(1.4827894252224585 0 0 1.4827894252224585 -37.32685553431065 -9.193317641925656)" d="M 185.62321739979 315.80961895327 C 187.96921739979 320.62461895327 191.31821739979 324.90261895327 195.67221739979 328.64361895327 C 201.29121739979 333.48061895327 207.64521739979 337.83461895327 214.73321739979 341.70461895327 C 214.82321739979 341.75561895327 214.84821739979 341.82861895327 214.80821739979 341.92461895327 L 214.70721739979 342.15361895327 C 214.69721739979 342.17961895327 214.67321739979 342.18961895327 214.64021739979 342.17761895327 C 207.36721739979 339.75361895327 200.47921739979 336.11561895327 193.97721739979 331.26861895327 C 182.02921739979 322.36661895327 176.63721739979 308.68861895327 181.45521739979 294.36161895327 C 183.34521739979 288.73661895327 186.22021739979 284.24761895327 190.07921739979 280.89461895327 C 198.68421739979 273.41861895327 209.45921739979 277.05561895327 215.41721739979 285.67061895327 C 215.91221739979 286.39061895327 215.80021739979 286.50061895327 215.07921739979 285.99961895327 C 211.01221739979 283.18961895327 206.86921739979 280.94461895327 201.78121739979 280.99561895327 C 195.57221739979 281.06261895327 190.41621739979 285.18161895327 187.39421739979 290.40361895327 C 183.09021739979 297.83861895327 181.74221739979 307.87061895327 185.62321739979 315.80961895327 Z"/><path fill="#434343" transform="matrix(1.4827894252224585 0 0 1.4827894252224585 -37.32685553431065 -9.193317641925656)" d="M 213.10421739979 311.91161895327 C 211.84721739979 316.42561895327 212.05021739979 322.32361895327 215.86321739979 325.56361895327 C 218.38621739979 327.70661895327 222.51121739979 330.33061895327 223.83721739979 333.40161895327 C 224.39421739979 334.69361895327 223.55921739979 336.01861895327 222.73921739979 336.95461895327 C 222.57321739979 337.14361895327 222.28321739979 337.15761895327 222.09321739979 336.98661895327 C 222.05021739979 336.94861895327 222.01521739979 336.90361895327 221.98821739979 336.85361895327 C 219.64321739979 332.21361895327 215.14721739979 328.97261895327 211.67721739979 325.49661895327 C 207.10421739979 320.89761895327 205.24821739979 312.48461895327 211.11321739979 307.92161895327 C 213.72021739979 305.89561895327 217.73721739979 303.10261895327 217.67021739979 299.45061895327 C 217.66521739979 299.07861895327 217.54521739979 298.74861895327 217.31521739979 298.46261895327 C 212.31321739979 292.11761895327 202.89521739979 294.02461895327 197.25921739979 298.28561895327 C 197.13021739979 298.38161895327 197.00021739979 298.38461895327 196.87121739979 298.29361895327 C 196.84921739979 298.27761895327 196.82821739979 298.25461895327 196.81221739979 298.22661895327 C 196.78421739979 298.17061895327 196.78921739979 298.11761895327 196.82821739979 298.06561895327 C 198.11121739979 296.48161895327 199.81421739979 294.97261895327 201.93421739979 293.54461895327 C 206.39721739979 290.53961895327 213.79621739979 289.81461895327 217.07921739979 294.67461895327 C 218.92421739979 297.39761895327 219.28021739979 300.27161895327 218.15121739979 303.29761895327 C 216.96021739979 306.48661895327 214.00821739979 308.66361895327 213.10421739979 311.91161895327 Z"/><path fill="#434343" transform="matrix(1.4827894252224585 0 0 1.4827894252224585 -37.32685553431065 -9.193317641925656)" d="M 365.36221739979 308.98461895327 L 364.36621739979 315.68361895327 C 364.32321739979 315.96261895327 364.38021739979 316.24561895327 364.52621739979 316.48661895327 C 365.76621739979 318.59561895327 367.20121739979 320.97561895327 368.00421739979 323.31261895327 C 368.52221739979 324.82661895327 368.19421739979 325.03761895327 367.02521739979 323.94561895327 C 364.02121739979 321.14361895327 361.49821739979 319.40461895327 357.72621739979 317.92861895327 C 349.94021739979 314.89161895327 342.50021739979 311.95261895327 335.40821739979 309.11161895327 C 332.23621739979 307.83761895327 328.93721739979 306.93361895327 325.76421739979 305.64361895327 C 324.95321739979 305.31061895327 324.98521739979 305.11761895327 325.85621739979 305.06061895327 C 336.62321739979 304.29561895327 347.42321739979 303.71961895327 358.25721739979 303.33061895327 C 366.86321739979 303.01861895327 373.65521739979 303.54161895327 380.91221739979 306.14961895327 C 381.15921739979 306.23961895327 381.33721739979 306.39161895327 381.44421739979 306.60561895327 C 381.57921739979 306.87461895327 381.49721739979 307.02261895327 381.19821739979 307.04461895327 L 365.88521739979 308.48661895327 C 365.58121739979 308.51461895327 365.40621739979 308.67961895327 365.36221739979 308.98461895327 Z M 350.46121739979 309.43061895327 C 349.94621739979 308.81561895327 350.03921739979 307.82761895327 349.52421739979 307.21161895327 C 349.32821739979 306.96961895327 349.07521739979 306.86361895327 348.76421739979 306.89261895327 L 339.92121739979 307.64261895327 C 339.25321739979 307.69861895327 339.23021739979 307.85061895327 339.85421739979 308.09861895327 C 341.88821739979 308.90761895327 343.97221739979 309.62461895327 345.87121739979 310.67061895327 C 349.09421739979 312.45061895327 359.26221739979 318.12161895327 362.12221739979 314.76361895327 C 363.00621739979 313.72261895327 363.44421739979 312.35561895327 363.43821739979 310.66261895327 C 363.43821739979 309.97061895327 363.28821739979 309.93661895327 362.99121739979 310.56061895327 C 362.06321739979 312.51361895327 360.62021739979 313.42961895327 358.66321739979 313.31161895327 C 355.19121739979 313.10461895327 352.45821739979 311.81061895327 350.46121739979 309.43061895327 Z"/><path fill="#434343" transform="matrix(1.4827894252224585 0 0 1.4827894252224585 -37.32685553431065 -9.193317641925656)" d="M 373.80021739979 376.96561895327 L 372.98921739979 376.07961895327 C 372.75921739979 375.82561895327 372.75021739979 375.56861895327 372.96521739979 375.30361895327 C 373.58921739979 374.51661895327 374.40321739979 374.05761895327 375.40321739979 373.92861895327 C 382.53321739979 373.02661895327 393.29921739979 373.58261895327 400.10021739979 377.28661895327 C 401.09021739979 377.83161895327 401.03621739979 378.23361895327 399.94021739979 378.49261895327 C 399.27021739979 378.65061895327 398.59721739979 378.72561895327 397.92321739979 378.72161895327 C 393.45921739979 378.66161895327 389.19021739979 377.84361895327 384.67621739979 378.11461895327 C 380.50721739979 378.36161895327 376.49321739979 378.65661895327 372.63521739979 379.00061895327 C 368.28921739979 379.38961895327 364.88921739979 377.76961895327 363.69221739979 373.36461895327 C 361.87721739979 366.70761895327 365.60621739979 360.21861895327 372.61021739979 359.17261895327 C 374.88821739979 358.82861895327 377.21621739979 359.03961895327 379.59621739979 359.80461895327 C 380.31621739979 360.04061895327 380.29621739979 360.15661895327 379.53621739979 360.15161895327 C 378.22121739979 360.14661895327 376.93421739979 360.20761895327 375.68121739979 360.33761895327 C 370.50621739979 360.88861895327 367.27721739979 363.61661895327 365.99321739979 368.52261895327 C 364.79621739979 373.09561895327 369.14221739979 377.44061895327 373.63021739979 377.35661895327 C 373.98021739979 377.34861895327 374.03721739979 377.21961895327 373.80021739979 376.96561895327 Z"/><path fill="#434343" transform="matrix(1.4827894252224585 0 0 1.4827894252224585 -37.32685553431065 -9.193317641925656)" d="M 264.76021739979 556.59661895327 C 264.88221739979 556.69161895327 265.05821739979 556.66461895327 265.15421739979 556.53961895327 C 265.18021739979 556.50361895327 265.19821739979 556.46161895327 265.20921739979 556.41861895327 C 267.95121739979 540.53961895327 279.34221739979 529.20661895327 294.24221739979 523.13161895327 C 295.44921739979 522.64261895327 296.41921739979 522.67661895327 297.51621739979 523.45161895327 C 304.83321739979 528.62161895327 311.81721739979 533.69561895327 318.46621739979 538.67361895327 C 319.35021739979 539.33261895327 319.25121739979 539.55161895327 318.17121739979 539.33261895327 C 313.44521739979 538.37661895327 308.64821739979 538.31361895327 303.77521739979 539.14561895327 C 290.89921739979 541.34861895327 279.63521739979 551.10261895327 277.85421739979 564.45961895327 C 277.19621739979 569.39261895327 278.10021739979 574.18861895327 280.56221739979 578.84461895327 C 280.90221739979 579.48061895327 280.76221739979 579.61061895327 280.14921739979 579.23361895327 C 269.37821739979 572.53961895327 259.02621739979 565.24461895327 249.09921739979 557.34661895327 C 239.49721739979 549.70061895327 229.92121739979 541.93061895327 220.64721739979 534.03361895327 C 195.39021739979 512.51661895327 171.75721739979 492.86661895327 149.74621739979 475.07961895327 C 145.12821739979 471.35061895327 140.55021739979 467.82561895327 136.00921739979 464.50761895327 C 135.14821739979 463.87661895327 134.25521739979 463.33161895327 133.32521739979 462.86961895327 C 133.07321739979 462.74661895327 132.83021739979 462.76361895327 132.60021739979 462.92061895327 C 131.63821739979 463.57861895327 130.72821739979 464.38061895327 129.86621739979 465.32561895327 C 126.56521739979 468.97061895327 123.18821739979 472.60961895327 119.73421739979 476.24361895327 C 119.47121739979 476.52161895327 119.48521739979 476.95961895327 119.76221739979 477.22161895327 C 119.79221739979 477.24961895327 119.82521739979 477.27661895327 119.86121739979 477.29961895327 C 149.77521739979 496.83961895327 179.75621739979 516.78661895327 209.80621739979 537.13861895327 C 209.87921739979 537.18461895327 209.89721739979 537.24561895327 209.85721739979 537.32461895327 L 209.73921739979 537.51861895327 C 209.70521739979 537.58061895327 209.65721739979 537.59161895327 209.59521739979 537.55161895327 C 207.89621739979 536.55061895327 205.91721739979 535.45361895327 203.65521739979 534.26161895327 C 169.02621739979 515.95761895327 137.74321739979 499.08761895327 109.80221739979 483.65261895327 C 109.54721739979 483.51661895327 109.45421739979 483.19561895327 109.59321739979 482.93661895327 C 109.60221739979 482.91761895327 109.61421739979 482.90161895327 109.62521739979 482.88461895327 C 115.85721739979 474.07061895327 122.48921739979 465.96161895327 129.52221739979 458.55861895327 C 131.67621739979 456.29161895327 134.13321739979 454.52061895327 136.89721739979 453.24361895327 C 137.23921739979 453.08661895327 137.33721739979 452.83261895327 137.19221739979 452.48461895327 C 135.60521739979 448.73261895327 136.08421739979 445.35961895327 138.62721739979 442.36661895327 C 140.48221739979 440.18461895327 142.42821739979 438.12261895327 144.46621739979 436.18261895327 C 144.96221739979 435.70561895327 145.14421739979 434.99061895327 144.93721739979 434.33361895327 L 143.34221739979 429.21161895327 C 143.10721739979 428.45761895327 143.26421739979 427.80061895327 143.81621739979 427.23761895327 C 146.98821739979 424.01361895327 149.13021739979 420.25961895327 146.98021739979 415.61861895327 C 146.78821739979 415.20261895327 146.89721739979 415.09361895327 147.30921739979 415.28961895327 C 148.08521739979 415.66161895327 148.86021739979 416.04761895327 149.63721739979 416.44561895327 C 165.19721739979 424.49461895327 180.09521739979 433.05861895327 194.33221739979 442.13861895327 C 204.88421739979 448.85961895327 214.44121739979 455.68361895327 223.00221739979 462.60761895327 C 224.41621739979 463.74961895327 224.28921739979 463.95561895327 222.62421739979 463.22361895327 C 222.47121739979 463.15661895327 221.95421739979 462.82161895327 221.07021739979 462.22061895327 C 201.69121739979 449.07861895327 181.60821739979 437.20161895327 160.81821739979 426.58761895327 C 157.26321739979 424.77061895327 154.22321739979 423.35661895327 151.69621739979 422.34361895327 C 151.41021739979 422.22961895327 151.20121739979 422.31861895327 151.07221739979 422.60561895327 L 148.06021739979 429.38061895327 C 147.82721739979 429.89861895327 147.90521739979 430.50361895327 148.26221739979 430.94961895327 C 148.97721739979 431.83861895327 149.86721739979 432.59261895327 150.93721739979 433.21161895327 C 164.42921739979 441.01561895327 173.33921739979 446.24561895327 184.57821739979 453.68061895327 C 184.63421739979 453.71361895327 184.66521739979 453.76161895327 184.67121739979 453.82461895327 C 184.67621739979 453.85261895327 184.67121739979 453.87761895327 184.65321739979 453.90061895327 C 184.63721739979 453.92761895327 184.61121739979 453.93461895327 184.57821739979 453.91661895327 C 173.89621739979 448.16361895327 162.88221739979 442.54661895327 151.53521739979 437.06761895327 C 150.93721739979 436.77861895327 150.22221739979 436.89661895327 149.74721739979 437.36261895327 C 147.43621739979 439.66361895327 145.18021739979 442.04061895327 142.98021739979 444.49261895327 C 138.28021739979 449.73961895327 142.73521739979 454.13761895327 147.23321739979 457.17461895327 C 158.71321739979 464.94261895327 170.48721739979 473.35061895327 182.55321739979 482.39561895327 C 183.30221739979 482.95761895327 183.25821739979 483.02461895327 182.42721739979 482.59761895327 C 180.99221739979 481.85561895327 179.45721739979 480.96261895327 177.82021739979 479.92261895327 C 166.65321739979 472.81361895327 155.05721739979 465.55961895327 143.03221739979 458.16161895327 C 142.11021739979 457.59561895327 140.97121739979 457.51361895327 139.97621739979 457.94161895327 L 137.20021739979 459.12361895327 C 136.27221739979 459.52261895327 136.21621739979 460.02361895327 137.03221739979 460.62561895327 C 179.46021739979 491.83461895327 222.03821739979 523.82461895327 264.76021739979 556.59661895327 Z"/></svg>